<?xml version="1.0" standalone="no"?>
<!DOCTYPE svg PUBLIC "-//W3C//DTD SVG 1.1//EN" "http://www.w3.org/Graphics/SVG/1.1/DTD/svg11.dtd" >
<svg xmlns="http://www.w3.org/2000/svg">
<metadata>
This is a custom SVG webfont generated by Font Squirrel.
Copyright   : Typeface  your company 2007 All Rights Reserved
</metadata>
<defs>
<font id="ChristopherhandRegular" horiz-adv-x="1139" >
<font-face units-per-em="2048" ascent="1638" descent="-410" />
<missing-glyph horiz-adv-x="569" />
<glyph unicode=" "  horiz-adv-x="569" />
<glyph unicode="&#x09;" horiz-adv-x="569" />
<glyph unicode="&#xa0;" horiz-adv-x="569" />
<glyph unicode="!" horiz-adv-x="435" d="M91 -73q23 61 89 61q97 0 97 -70v-17q-26 -70 -80 -70q-106 24 -106 96zM91 268q0 199 177 726l9 9h18q47 0 97 -53v-17q-177 -466 -177 -805l9 -44l-44 -44h-45q-44 0 -44 228z" />
<glyph unicode="&#x22;" horiz-adv-x="370" d="M0 938q86 228 127 228q11 0 60 -60q53 0 72 -54q16 0 16 -47q-29 -42 -44 -194l-5 -7l-6 7l-27 -7q-55 31 -55 80v14l11 107q-26 -26 -61 -154l-5 7l-28 -7h-5q-50 36 -50 87z" />
<glyph unicode="#" horiz-adv-x="1003" d="M-180 282l1 7l18 21l17 -1q95 -8 330 63l49 208l-236 -56q-28 63 -26 93l1 8q2 24 197 51q107 24 108 44q125 366 197 400q31 -3 55 -73l4 -23l-6 -7q-46 -27 -47 -42q-43 -66 -114 -248h11q206 15 208 35q85 241 127 292h6q45 -4 49 -73l-59 -131q-33 -61 -35 -95l5 -1 q84 8 238 -5q77 -6 93 -76l-2 -22q-3 -46 -176 -69l-22 10l-17 -7l-5 8l-33 -4q-49 8 -48 26q22 21 46 19l1 15q-126 11 -129 -27l-54 -192l338 2q18 -2 44 -72q-17 -57 -61 -78l-32 25l-98 9q-221 13 -222 -12q-44 -211 -59 -335l11 -62q-11 -44 -31 -43q-64 27 -59 89 q10 126 60 350l-11 1q-211 -13 -215 -58l-59 -411l3 -38l-24 -20l-4 23l-6 -7h-5q-35 23 -41 49l2 22q8 102 58 389q-161 -55 -321 -71zM271 395l6 -1q204 24 218 43l49 200q-218 -24 -219 -50z" />
<glyph unicode="$" horiz-adv-x="1399" d="M0 159v23q31 68 53 68q90 -88 173 -114h53q422 0 704 227v23q-448 107 -598 170q-133 98 -133 204q55 143 465 284q110 45 226 45h53q107 -35 107 -113q-67 -15 -67 -34l-39 4l9 21l-11 4l-8 -23l-10 4l-4 13l-15 5l12 -17q-236 0 -492 -193l-40 -57q0 -59 598 -204 q109 -50 173 -124v-35q-224 -218 -624 -306l-186 -34l-14 12l-40 -12q-264 0 -345 159zM521 -289q-62 586 80 1506q14 22 13 95l23 27q56 36 111 -31q-37 -80 -77 -369q-77 -511 -64 -922l24 -218l21 -35l-26 -41l-22 -14q-65 -26 -83 2zM721 -289q-62 586 80 1506 q14 22 13 95l23 27q56 36 111 -31q-37 -80 -77 -369q-77 -511 -64 -922l24 -218l21 -35l-26 -41l-22 -14q-65 -26 -83 2z" />
<glyph unicode="%" horiz-adv-x="996" d="M-13 -221q18 171 524 1037q212 290 262 283q45 -48 41 -87q-287 -282 -522 -787q-203 -354 -228 -486l-44 -1q-24 13 -33 41zM44 849q84 189 119 184l35 -27l109 22l62 -8q81 -65 70 -172l-4 -36q-7 -72 -160 -149l-95 -9q-106 14 -136 195zM144 792l52 -44 q161 39 173 154l-17 17l-6 1q-129 17 -200 -106zM380 110q14 136 294 286q69 27 121 20l31 -4q74 -10 95 -116q-21 -196 -211 -274q-71 -55 -196 -70l-6 8l-6 1l-7 -6l-6 1q-120 54 -109 154zM477 75l10 -16q121 -16 305 144q36 48 40 90l-5 8l-25 4q-137 18 -234 -139 q-84 -23 -91 -91z" />
<glyph unicode="&#x26;" horiz-adv-x="1318" d="M0 91q5 31 318 289l27 38l-18 56v75q0 203 238 346q77 56 151 56q97 -52 97 -122q0 -125 -336 -477l80 -74h17q193 61 460 271q26 47 62 47q88 -40 88 -103v-28q0 -22 -124 -66l-265 -178q62 -31 62 -46v-66l-26 -28h-27q-78 0 -203 47q-362 -159 -477 -159v10l-9 -10 q-115 21 -115 122zM247 128q215 79 221 103l-53 56q-16 0 -168 -150v-9zM424 502h9q200 190 230 290h-9q-80 0 -195 -168z" />
<glyph unicode="'" horiz-adv-x="255" d="M47 857v55q31 254 56 254h55q33 -27 56 -101q-71 -244 -111 -244q-56 15 -56 36z" />
<glyph unicode="(" horiz-adv-x="367" d="M0 295q0 358 343 784l33 23h47l34 -30v-23q-190 -201 -289 -430q-67 -184 -67 -317q0 -202 128 -391q-14 -76 -54 -76q-85 0 -101 144q-66 147 -74 316z" />
<glyph unicode=")" horiz-adv-x="396" d="M30 0q58 0 160 317q29 123 37 258l-8 8v7l8 7v8q0 189 -95 443v22l15 15h21q106 0 132 -192q36 -152 36 -296v-36q0 -269 -153 -569q0 -48 -44 -73h-43q-66 0 -66 81z" />
<glyph unicode="*" horiz-adv-x="353" d="M0 892q10 15 120 72l8 8l-4 112l12 8h20q32 -12 32 -68v-20h4l104 28q34 0 48 -40q0 -44 -48 -68l-12 -16q60 -44 60 -72q-8 0 -8 -12l-4 -4h-8l-100 36q-67 -61 -100 -120q0 11 -32 16q0 8 -16 20v12l24 60h-24l-20 -12q-56 24 -56 60z" />
<glyph unicode="+" horiz-adv-x="701" d="M-63 529q0 91 349 135q52 166 70 166q54 0 54 -55l-8 -32l24 -16l-8 -40v-7l8 7h7q0 -15 24 -15q279 -8 279 -48l-70 -39q0 -32 -15 -32h-117l-31 8l-31 -8h-23l-39 8q0 -14 -39 -24q-15 -70 -15 -190v-87l-16 -16q-69 48 -69 79l-8 111v55l-8 40h-8q-134 0 -217 -103h-8 l8 -8v-8h-23q0 16 -31 16q-39 62 -39 103z" />
<glyph unicode="," horiz-adv-x="325" d="M-26 -209q0 24 115 189q48 66 61 181l23 14h8q92 -16 92 -63q-23 -152 -207 -356h-15q-59 0 -77 35z" />
<glyph unicode="-" horiz-adv-x="598" d="M-57 466q0 59 384 102l30 -7h47q130 0 130 -54v-27q0 -28 -30 -55v-7q-71 41 -153 41q-186 0 -354 -95q-43 0 -54 102z" />
<glyph unicode="." horiz-adv-x="254" d="M33 117q0 43 65 43q94 -11 94 -85q-27 -64 -51 -75h-43q-65 49 -65 117z" />
<glyph unicode="/" horiz-adv-x="379" d="M-141 -234q114 578 520 1416q20 17 41 87l30 19q64 17 97 -63q-59 -65 -183 -330q-224 -465 -333 -862l-41 -216l10 -39l-37 -32l-25 -7q-70 -5 -79 27z" />
<glyph unicode="0" horiz-adv-x="1153" d="M-123 523v46q139 296 608 468q229 64 347 64h54l7 -9l8 9h8q124 -17 208 -101l46 -128q0 -423 -393 -716l-300 -138v10q-33 -19 -177 -28q-122 0 -239 156q-46 107 -46 193q16 193 139 403q-103 -55 -147 -156l-22 -45l-8 9h-15v-9h15q-13 -120 -39 -120l-38 37l8 9z M116 349q0 -219 215 -248q166 0 478 211q114 96 200 257q69 165 69 275q0 130 -254 156l-31 -9h-7l-16 18l-38 -18l-8 9v9q-139 -11 -139 -46l-38 10l-46 -10l7 -9v-18h-23v18h-7q-43 -46 -85 -46l8 -64q0 -42 -100 -82q-185 -217 -185 -413z" />
<glyph unicode="1" horiz-adv-x="598" d="M-86 403v23q449 513 632 684q65 -22 65 -99v-7q-169 -339 -254 -814v-7q22 -51 22 -130q0 -47 -58 -53h-29q-42 0 -51 122q0 189 181 714q-347 -369 -406 -479l-51 -22q-51 22 -51 68z" />
<glyph unicode="2" horiz-adv-x="942" d="M0 112q0 25 408 510q130 210 139 316v23q-9 31 -77 31q-128 -36 -154 -77v-15q68 -62 84 -62v-16l-46 -30h-8q-67 0 -154 92v77q134 140 278 140h77q107 -56 107 -163q0 -214 -515 -811l7 -8h8q453 47 585 47h46l31 7q100 -31 100 -69q-10 -36 -46 -62l-146 16 q-104 0 -562 -54q-162 0 -162 108z" />
<glyph unicode="3" horiz-adv-x="818" d="M0 481q0 54 100 84q438 284 454 413v8h-8q-215 -65 -292 -168q0 -45 -54 -54v8q-54 40 -54 53v39q94 150 377 229l46 8q78 0 100 -92v-15q0 -185 -461 -474v-16h15q427 0 561 -214l8 -38v-23q0 -120 -392 -222l-139 -7l-7 7l-8 -7h-8q-61 51 -61 91q0 29 46 54h31 q23 0 23 -31h61q175 0 339 130v16q0 74 -300 137l-8 -7h-8q-46 5 -46 15l-7 -8h-23l-8 8l-8 -8h-15l-8 8l-8 -8h-69q-169 0 -169 84z" />
<glyph unicode="4" horiz-adv-x="762" d="M0 521q0 100 336 445l102 126l28 14q54 -5 54 -53q0 -31 -164 -200q-237 -256 -253 -332q13 -46 82 -46h55q157 0 157 46q41 190 123 286l28 6q27 0 55 -39v-27q-83 -125 -96 -226v-7q81 19 164 80l34 7l14 -40v-7q0 -80 -247 -139q-89 -337 -89 -425l-20 -20 q-75 0 -75 59q0 70 68 366h-7l-61 -7h-96q-192 8 -192 133z" />
<glyph unicode="5" horiz-adv-x="830" d="M3 88l9 8l94 -17l26 9v-9q161 22 420 253l26 44v9q0 28 -86 44l-317 -79h-52q-86 56 -86 166q0 101 95 280q-77 0 -77 96q39 53 326 175l438 43h137q249 -20 249 -52v-9q0 -26 -129 -52l-137 8q-320 0 -567 -96q-142 -117 -206 -384v-53l301 70h68q132 0 189 -166v-9 q-75 -186 -412 -341q-44 -26 -86 -26h-77q-146 19 -146 88z" />
<glyph unicode="6" horiz-adv-x="904" d="M3 235q13 200 462 622q371 253 479 253q80 0 80 -63v-36l-36 -36l-8 9q-253 -34 -604 -370q-142 -174 -142 -199h9q101 91 275 108h18q222 -22 222 -180v-54q0 -204 -373 -280l-54 -9q-328 43 -328 235zM127 217q26 -100 133 -100h45q337 35 337 208v18q-22 54 -80 54 q-284 -19 -284 -180q0 -46 -18 -46h-35q-71 34 -71 109h-9z" />
<glyph unicode="7" horiz-adv-x="787" d="M-57 884q72 143 305 227q92 21 160 21h8q182 -16 182 -135l7 -28q0 -85 -87 -361l181 7q364 0 364 -70l-29 -22l-51 7l-7 -7v-7l-233 7h-58q-218 0 -218 -42q-160 -481 -255 -481h-7l-44 35q75 114 189 446q-132 0 -283 -92l-44 -21q-58 17 -58 70q54 75 269 121 q182 19 182 70q87 226 87 347q0 59 -95 71q-200 0 -370 -170q-30 -32 -30 -49q-65 11 -65 56z" />
<glyph unicode="8" horiz-adv-x="740" d="M-91 703v14l24 65l-8 50q0 146 287 194l109 -7q221 78 318 78h47q132 -26 132 -100q0 -76 -194 -222l-171 -172l-70 -115q194 -196 194 -280v-36q0 -83 -124 -150q-27 -22 -78 -22q-157 0 -202 122v86q47 151 93 237v7q0 11 -147 108l-8 -7q-172 0 -202 150zM57 782 q0 -84 248 -244h8q93 129 381 402l23 43q-25 17 -70 21q-239 0 -590 -222zM274 165q29 -79 70 -79q124 42 124 122q0 72 -124 187q-62 -44 -70 -230z" />
<glyph unicode="9" horiz-adv-x="624" d="M3 692q0 98 65 200l-9 96v33q0 51 84 51l56 -39q133 65 214 65h28q151 0 187 -181q0 -119 -196 -161h-19l-46 7l-10 -7h-9l-186 45v-6l-28 -116q0 -84 168 -644v-45q-38 -10 -38 -19l-37 6l-37 -6q-47 0 -47 64l9 6q-149 567 -149 651zM227 885q0 -26 121 -45 q149 0 149 97v19q-9 52 -65 52q-128 -17 -196 -84l-9 -7v-32z" />
<glyph unicode=":" horiz-adv-x="349" d="M14 391q0 24 49 67q103 0 147 -124q0 -86 -110 -86q-86 34 -86 143zM124 772q24 44 50 48q110 -19 110 -114v-48l-37 -29h-37q-86 31 -86 143z" />
<glyph unicode=";" horiz-adv-x="240" d="M-66 -224q40 289 69 289h69q40 -31 68 -114q-88 -279 -137 -279q-69 19 -69 42v62zM42 251q0 72 69 72q78 -35 78 -124l-49 -41h-19q-79 67 -79 93z" />
<glyph unicode="&#x37e;" horiz-adv-x="240" d="M-66 -224q40 289 69 289h69q40 -31 68 -114q-88 -279 -137 -279q-69 19 -69 42v62zM42 251q0 72 69 72q78 -35 78 -124l-49 -41h-19q-79 67 -79 93z" />
<glyph unicode="&#x3c;" horiz-adv-x="753" d="M0 417q0 20 158 107q395 273 444 273h6q11 0 54 -100q-105 -26 -401 -227l-54 -33v-14h6q186 0 461 -146q43 -70 43 -94l-18 -13h-6l-6 7l-6 -7h-49q-49 67 -273 133q-284 29 -329 47z" />
<glyph unicode="=" horiz-adv-x="792" d="M32 615v26l19 19h31l6 -7q344 70 604 70l62 -102l-75 -25l-87 19q-156 0 -454 -70q-106 0 -106 70zM57 380q0 70 50 70q253 70 417 70q193 0 193 -38l25 -76l-50 -13h-13l-124 19q-190 0 -423 -76q-63 8 -63 38l-6 6h-6z" />
<glyph unicode="&#x3e;" horiz-adv-x="843" d="M3 710v31q0 38 26 42h43q24 -4 70 -57q153 -45 581 -131l95 -83l-35 -36h-17l17 15v6q-280 -138 -563 -307l-18 -16l9 -5v-5q-9 -21 -35 -21l-8 5h-9l-61 -10l-60 47v5q0 32 138 93l443 250v5q-353 57 -529 115q-82 43 -87 57z" />
<glyph unicode="?" horiz-adv-x="704" d="M30 854q0 113 372 187h10q195 -44 195 -143v-26q0 -132 -382 -535l-37 -71q0 -33 84 -45l261 36h9l46 -45q-96 -98 -279 -98h-9q-251 32 -251 161v44l307 348q130 169 130 249l-19 18h-28q-279 -51 -279 -116l10 -35q0 -18 -28 -18q-112 35 -112 89zM291 -64q38 36 93 36 h28q65 -45 65 -71q-35 -81 -93 -81q-93 34 -93 116z" />
<glyph unicode="@" horiz-adv-x="1221" d="M2 -17v85q12 142 143 315q184 195 397 269q124 59 286 59q229 0 270 -138l11 -52l-55 -256h-6v-33q-49 -122 -176 -269q-91 -92 -104 -92l-50 -19q-61 0 -127 111l-5 7h-6l-16 -7q-143 46 -143 137v40l5 46q-24 0 -38 92q71 130 275 197l94 13h11q88 0 88 -158 q0 -195 -160 -308q0 -13 -22 -13l-6 -7v-19q0 -40 22 -40q130 28 270 276q94 194 94 315v6q-50 86 -182 86l-38 6l-6 20h-60q0 -13 16 -13v-7h-22v13l-61 -19q0 10 -22 19l-5 -6h-17l-16 6v-32l-28 26l-5 -7l-44 -33h22v-6h-11l-39 6l-38 -19l-6 6v7q-18 0 -44 -66 q-233 -116 -325 -315v-6l22 19v-6l-16 -27l-22 14v-7l11 -13l5 6v-13q-38 -85 -38 -196q0 -188 137 -263q79 -46 193 -46h17q238 0 611 191q44 -29 44 -66l-17 -13l6 -7v-13l-33 -13v20q-168 -86 -342 -132l-5 7q0 -9 -154 -46l-17 -7l-16 7l-6 -7h-5l-17 7h-11v-7l-127 14 l-16 -7v7l-6 -7h-5l-17 13l-5 -6h-6q-286 114 -286 374zM85 120h5q0 18 17 40h-17l-5 -33v-7zM255 429l6 -7h11v7l-17 6v-6zM360 494l33 33h-5q0 -15 -28 -20v-13zM399 527h5l28 7v26h-6zM487 553v14h22l-11 -14h-11zM514 68l28 -7h27v20l-33 39h-16l-6 -33v-19zM542 580v13 h16l-11 -13h-5zM547 206l88 -119q177 100 177 283q-6 19 -33 19h-33v13h-28q-94 -17 -94 -59v-6l6 -20l-44 -39l-6 6h-5l-17 -26l6 -20q-13 0 -17 -32zM591 593v13l33 7v-14z" />
<glyph unicode="A" horiz-adv-x="1114" d="M-90 273v18q77 54 300 161q191 641 331 641q138 0 238 -303l11 -9v-9l-11 -53q29 0 52 -98q41 -27 93 -27l10 -9v-9q0 -18 -51 -18v-8l20 -72l-10 9h-10v-18h10l10 9h11q12 -80 31 -80l-11 -9v-18h11v18h20l42 -107l-10 -9q27 0 51 -44l-10 -9v-9q62 -60 62 -134l-52 -71 h-20q-143 36 -145 62q93 20 93 36q0 34 -186 392q-16 0 -31 36q-63 0 -63 -27l-10 9h-10l-42 -36l-10 9h-10q-90 -18 -145 -53l-31 9q-17 -24 -135 -72l-52 -133l11 -9h10l-31 -54l10 -9v-9q-31 -121 -62 -151q0 -26 -20 -26l31 -143l-52 -27q-83 7 -83 63q0 91 52 284 q-207 15 -207 116zM96 229h52l10 53h-10l-52 -35v-18zM345 612l10 -62v-45l155 45l11 -9h10l145 44l31 -9l10 9l10 -9l11 9v9q0 76 -166 392h-10l-124 -160l10 -9v-9l-10 -9h-11l-10 9v-9l10 -36h-10l10 -9v-17l-20 -18v44h-11l-31 -98v-9h11v18h10v-18q-10 -53 -31 -53z " />
<glyph unicode="B" horiz-adv-x="1191" d="M-20 1q19 44 73 78h11l21 -88l10 10h11q21 0 21 -29h21l52 -10l314 39l11 -10q0 19 272 78q257 102 283 157v19q-148 150 -597 254l-11 10q11 -150 63 -342q-44 -39 -83 -39h-32q-268 115 -346 303q-63 139 -63 244q0 308 482 411h11l10 -10l11 10h52q144 0 262 -196v-78 q0 -40 -31 -78l-11 10h-21v-10h21l-83 -127l-53 -20v-29q429 -130 545 -342v-20l-31 -98h-53q-55 -78 -524 -204q-262 -40 -450 -40h-11q-107 0 -157 147zM74 685q38 -367 304 -430h11l-32 225v117l21 342l-94 -49l-42 10q-168 -118 -168 -215zM462 969q0 -45 52 -88 q-12 -151 -42 -225l21 -39q231 133 231 234v49q-49 78 -147 78h-63z" />
<glyph unicode="C" horiz-adv-x="1114" d="M-7 371q179 390 515 592q127 112 253 120l59 -85l14 13l12 -15l-5 -81q-1 -27 -79 -36v14q-123 -33 -200 -96l-37 16l12 -15l-1 -13l-150 -127l1 14l55 64l-26 2q-3 -51 -49 -51h-5q-6 -90 -88 -171q-99 -125 -106 -252l-2 -27q50 -71 151 -78l103 -6q21 -1 45 -1 q189 0 607 81h7q45 0 99 34l76 -18q3 40 28 39l26 -2q-4 -64 -61 -64h-7l-1 -13l12 -15l-1 -13l-210 -55l-13 15q-9 -35 -82 -35q-11 0 -23 1l-12 14l-13 1l-30 -66l-12 14l-39 3l-80 -36l-12 14l-13 1l-222 -40l1 14l-170 -30q-328 74 -328 346q0 14 1 29zM180 486l24 -28 l3 53zM221 523q45 24 125 138h-13q-110 -102 -112 -138zM1290 232l1 13q39 -2 40 24l-12 14l14 12l26 -1l63 -17v-14l-26 2q-3 -38 -27 -38h-1zM1423 290l94 47l64 -4l-1 -27z" />
<glyph unicode="D" horiz-adv-x="1153" d="M-290 844q127 152 264 152l206 62v9q381 0 546 -116q165 -105 264 -258q103 -174 103 -259v-18l-9 -9l9 -9v-8q-46 -81 -85 -81v18h-9v-18l9 -9l-47 -18l10 -8v-9l-19 -18l-10 9h-9q0 -28 -94 -72l-47 9l-9 -9v-9h28v-8l-179 -81l-9 9l-38 -35h-19v17h28v18l-56 -18v-35 h-9l-10 9h-9v-9l-10 9h-28q0 -36 -28 -36h-19v18h19v9h-19q-41 -71 -160 -71l-56 9l-38 -9l-38 53v18l19 18h28q205 0 668 249q125 84 142 170q-61 218 -255 365q-169 125 -442 125v-9l-9 -35v-179l9 -35l-9 -9l47 -259l-9 -9q75 -115 75 -223l-75 -18q-23 0 -85 72l37 26 q-103 225 -103 625l-9 35h-38q-128 -14 -272 -116q-33 -62 -76 -62v9l-9 -9h-28zM1018 327h9l10 27h-19v-27zM1046 390q19 0 19 26v18h-10z" />
<glyph unicode="E" horiz-adv-x="1063" d="M0 264q0 179 180 445v20l-36 10l-9 -10q-36 43 -36 81v30q68 55 251 102l27 -10q63 10 63 40l27 -10l377 91l27 -10l126 30v-10l143 30v-10l9 10h126l36 -10l36 10v-20l-27 -10v10l-9 -10h-9l-9 10h-9l-9 -10v-10l-63 20l-27 -30h-9l9 10v10h-36v-30h-53l-9 30l-45 -30 h-9l-27 20q0 -30 -18 -30l-18 20v-10l-9 10h-27q0 -53 -27 -61h-9l18 30h-18v-20h-36q-18 0 -18 31h-9q0 -36 -81 -51q0 -30 -18 -30h-27v20h-35l8 -10v-10l-17 -21h-18l-27 21h-18l9 -10v-21q-153 -40 -288 -101l54 -71v-30l-117 -91l-89 -152v-20h9q219 113 817 233 l18 -41q0 -89 -189 -111l-9 10l-269 -71l-9 10q-13 -21 -171 -81l-18 -30v-10q27 0 27 -21q0 -28 -72 -40q-143 0 -143 121h-18l-27 -131v-51q0 -101 161 -101h72q289 0 539 152h18q15 0 36 -71h-9l18 -51h-9l-45 -10l-9 10q0 -30 -18 -30l-9 10q-101 -91 -530 -142 q-221 0 -305 142z" />
<glyph unicode="F" horiz-adv-x="1114" d="M0 415v18q0 31 239 63l55 298q-46 25 -46 72q0 91 394 217l166 18q229 0 229 -190q-18 0 -18 -36l-9 -9h-28v54q-62 73 -165 73q-225 0 -422 -154v-9l27 -45q-24 -130 -55 -171l9 -9v-9l-9 -28h-18v55h-9l-19 -91h19v18h9l27 -18l331 54l27 -9q0 28 138 28l55 -9l18 18 h156l10 -9l9 9h64l18 -18l9 9h10l18 -19q0 -18 -92 -36v9l-110 -18l-9 9v9l-64 -27l-28 9v-9l-9 9h-9l-110 -18h-19q0 -22 -91 -36h-10l-27 18l-46 -36l-9 9q-276 -48 -276 -99l-9 -81l28 -244l-9 -9h-10l-9 9q0 -36 -36 -54h-10q-46 0 -64 334l9 27l-27 9l-65 -36h-45 q-83 11 -83 81z" />
<glyph unicode="G" horiz-adv-x="1114" d="M0 348q0 332 674 618q196 77 337 77q60 0 96 -116l-48 -19q-68 0 -68 19l-259 -58l-29 10l-20 -19q0 -17 -115 -58v19h-19l9 -10v-9h-19l-10 9q-179 -83 -375 -270l-58 -115h20q0 28 19 28h9q-4 -48 -28 -48v-9l9 -10l-9 -48v-20q30 -154 269 -154h10q433 53 433 289 q32 145 58 145h38l58 -106q-58 -101 -58 -222l10 -308q-22 -232 -68 -232v-19l10 -10v-9q-29 0 -29 -29l-48 -20q-39 20 -39 49l58 347l-9 212l-10 9h-10q-146 -146 -346 -192h-10l-29 9l-9 -9v-10l-39 19l-9 -9h-10q-337 43 -337 279z" />
<glyph unicode="H" horiz-adv-x="778" d="M-348 470v34q3 19 379 103l10 8v119q0 284 62 350h20q41 -17 41 -51l-10 -9v-8q15 -34 31 -34l-10 -9v-25l10 -9v-8q-28 0 -51 -248l10 -25h-10l10 -26q369 56 369 119q35 324 102 324h10q93 0 93 -127l-31 -60q23 0 41 -60l-10 -25l10 -9v-8q-13 -43 -72 -86 q-20 -42 -20 -196v-94l-11 -8l11 -26l-11 -25l21 -17v-9l-10 -8v-9q23 0 51 -170l92 -162q0 -15 -61 -25q-187 0 -216 613v51h-51l-307 -77v-85l10 -43l-10 -8l20 -17v-9l-10 -8v-9q15 0 62 -187l61 -145h-10l-21 -26q-130 0 -174 307l-31 213l-61 -17v9q-184 -60 -184 -86 q0 -34 -62 -42q0 17 -82 85z" />
<glyph unicode="I" horiz-adv-x="345" d="M38 550v84q0 460 45 460h67q56 -38 56 -63l-22 -481v-31q0 -309 146 -502v-10l-22 -21q-234 0 -270 564zM165 894l6 -1l7 51l-3 18l-6 1l-3 -17z" />
<glyph unicode="J" horiz-adv-x="787" d="M0 749l158 38q351 144 522 307h40l59 -58v-9l-30 -29l10 -9v-10q0 -46 -69 -105q-98 -148 -98 -413l10 -124h-10l59 -240h-10l20 -48l-10 -9q23 0 39 -182q0 -125 -79 -163v-9l-9 9h-10q-119 -57 -178 -57h-59v-20h-20v29l-39 -9l-40 9l-9 -9h-10q-227 73 -227 182v38 q71 121 237 182l9 -10v-9l-79 -77l10 -38l-39 -57q0 -115 158 -115h19q237 25 237 153v19q-89 452 -89 642q0 104 30 230l-10 28l20 20v19l-336 -163v-10h20v-19q-32 0 -89 -57h-29v19h29q0 20 -88 67z" />
<glyph unicode="K" horiz-adv-x="1463" d="M-9 249l93 593l-11 50q30 201 82 201q100 0 116 -121q-58 -186 -58 -251h-35v-10l23 -30l-11 -60v-10q821 462 1004 462l105 -60q0 -135 -128 -141l-35 10q-47 -52 -117 -70l-12 10v10l35 70v10h-23q-60 0 -397 -171q-121 -80 -152 -80l12 -10v-10q-73 -20 -82 -50v-10 h47q0 -23 -59 -30v-21q454 -133 736 -291l619 -371l35 -40v-40l-47 -41q-91 31 -362 221q-618 399 -1086 472l-47 -10q0 30 -23 30l-12 -10h-11l-24 20q-47 0 -47 -110v-40l-11 -10v-11h11l-11 -10v-10l11 -10l-11 -10v-20q0 -77 47 -171h35l221 91v-10l-128 -121l12 -10 l-35 -19h-70q-199 0 -199 250zM727 822h12l35 10v10h-35l-12 -10v-10zM832 882h12l46 10v10h-23l-35 -10v-10z" />
<glyph unicode="L" horiz-adv-x="1199" d="M0 282q0 191 390 827h67l81 -65v-22q-27 -25 -54 -142q-61 -20 -135 -174q-174 -301 -174 -478q0 -152 268 -152l887 108v-11l14 11h13q81 -11 81 -32q-63 -66 -108 -66v11l-147 -54l-14 11h-13l-202 -44l-54 11q0 -23 -295 -54l-14 11h-13l-94 -22v11l-41 -11 q-430 35 -430 239z" />
<glyph unicode="M" horiz-adv-x="1373" d="M-64 120v29q60 19 416 675l109 247h49q40 -6 40 -95l10 10h9l20 -19l-10 -10l20 -19q-14 -76 -59 -76v-9l10 -10v-9l-20 -19v-29l10 -38l-10 -9l10 -48v-76l29 -48l-9 -28q17 0 49 -95h10q50 11 267 532q53 107 99 134h20q89 -55 89 -210q0 -371 228 -865q43 -24 59 -66 l-30 -29l-29 10l-80 -10q-277 489 -277 979q-73 -92 -217 -523l9 -9v-10l-39 -95l-69 9l-20 -19q-152 0 -188 476v48q-124 -165 -208 -381q-30 -32 -129 -266h-10v-10h20l-10 -57l10 -38l-59 -38q-119 92 -119 114z" />
<glyph unicode="N" horiz-adv-x="1054" d="M-106 0q0 64 319 608q138 213 223 213q89 0 266 -497q73 -96 127 -132h11l21 325l11 10v10l-11 10l21 385h11l-11 11l11 50v81l32 31q55 0 74 -51l-21 -111q32 0 32 -21v-10q-43 -3 -43 -40l22 -21h-22v-10l11 -81l-32 -30h-10q42 -47 42 -142v-10l-11 -11v-10h22 l-32 -50v-31q0 -34 32 -71v-61l10 -50l-32 -183l11 -10q-13 -91 -42 -91q0 23 -54 30v-10l-31 -30q-243 208 -309 385q-86 304 -148 304q0 -30 -22 -30l32 -92v-10l-74 -101h-11v10l21 51q-176 -181 -202 -325q0 -30 -31 -30v-20l10 10h11l10 -10v-10l-31 -31l-11 10v-10 l11 -10v-10l-64 -142h-11q-21 0 -21 31l-63 -51q-18 0 -54 81z" />
<glyph unicode="O" horiz-adv-x="1304" d="M0 378v27q0 289 204 489q188 190 486 190h102q350 -96 350 -217q82 0 136 -462q-104 -313 -283 -313l-124 -54l-11 13v14q-108 -27 -125 -54q-56 0 -56 27l-46 -27l-11 13h-34v-40h-23l-11 14l-11 -14h-45v27h-12l-34 -27q-395 122 -395 217q-57 81 -57 177zM136 473 q0 -224 158 -299q75 -41 158 -41h57q521 0 622 272l11 136q0 267 -271 421v14l-11 -14q-80 9 -80 27l-11 -13h-11l-57 40l-68 -27l-11 14h-11l-113 -27l-12 13h-11l-68 -54l-11 14h-23l-22 -28h45l-102 -68v-68l-11 -13v-14l22 -27q-34 0 -34 -27h23q-14 -60 -68 -95v40 q-90 -77 -90 -176z" />
<glyph unicode="P" horiz-adv-x="701" d="M-71 690v39q0 311 506 377q294 0 487 -278l19 -99q0 -69 -282 -218q-223 -129 -399 -129h-10q0 -143 88 -357q-9 -37 -68 -59q-75 35 -88 79l10 60q-114 485 -117 733h-10q-23 -3 -58 -129l10 -29h-10l10 -10v-10q0 -53 -39 -70h-10q-26 0 -39 100zM201 799l10 -30 l10 -268l29 -20q349 80 516 248l49 70q-115 198 -331 198h-30q-228 -22 -243 -69v-119z" />
<glyph unicode="Q" horiz-adv-x="1046" d="M0 343q0 314 180 580l77 50l12 -12h13q0 88 231 88q167 0 347 -240l90 -201v-13l51 -113l13 -63q0 -135 -154 -227v-13q171 -190 667 -542v-38h-13q-215 0 -731 454l-52 38q-222 -101 -372 -101q-359 41 -359 353zM180 292q35 -151 141 -151h38q91 0 218 51v25 q-57 63 -154 63q-89 138 -89 189v13l25 25h64l296 -215q128 66 128 190v25q0 287 -308 403h-51q-159 0 -296 -189l65 -113q-77 -104 -77 -316z" />
<glyph unicode="R" horiz-adv-x="1163" d="M-135 731q0 214 475 354l42 23h116q133 0 274 -183v-11q-6 -95 -53 -183q-64 -126 -84 -126l-21 -23q0 -23 -64 -23q0 -43 -84 -91l-10 -12l-11 12q0 -54 -74 -69l-10 -34q38 -23 485 -103q374 -129 432 -194v-12q0 -87 -127 -102q-96 151 -727 251q0 -40 42 -80l53 -103 q0 -29 -85 -57q-358 170 -558 651zM-50 662q0 -73 94 -263h21q19 23 106 23q0 26 53 34q-43 175 -43 332v57l32 34q59 0 105 -91v-126q0 -137 43 -137q295 237 295 366v11q-51 80 -190 80h-42q-219 0 -464 -251l-10 -57v-12zM192 239q11 -31 116 -91v22q-21 69 -74 69h-42z " />
<glyph unicode="S" horiz-adv-x="1243" d="M0 159v23q31 68 53 68q90 -88 173 -114h53q422 0 704 227v23q-448 107 -598 170q-133 98 -133 204q55 143 465 284q110 45 226 45h53q107 -35 107 -113q-67 -15 -67 -34l-39 4l9 21l-11 4l-8 -23l-10 4l-4 13l-15 5l12 -17q-236 0 -492 -193l-40 -57q0 -59 598 -204 q109 -50 173 -124v-35q-224 -218 -624 -306l-186 -34l-14 12l-40 -12q-264 0 -345 159z" />
<glyph unicode="T" horiz-adv-x="374" d="M-331 986l17 83l126 -12l462 24l33 12l26 -12l8 12l50 -12q488 -31 488 -130l8 -48l-17 -23l9 -12l-59 -24q-168 95 -429 95h-151q-23 0 -59 -628v-201l9 -59q-45 -59 -67 -59q-42 71 -42 189v118l33 604v24l-386 -36q-42 0 -59 95z" />
<glyph unicode="U" horiz-adv-x="1114" d="M0 477v55q83 433 214 433q45 -65 45 -119l-124 -260l12 -11l-12 -76v-11q0 -245 496 -347h102q155 0 225 282q45 108 45 282v87q0 89 -45 206v32q0 76 79 76q90 -123 90 -401l-23 -54l12 -65h-12l12 -11v-33q0 -21 -45 -21q0 -33 33 -33q-39 -37 -56 -97h23v-22l-12 11 h-11l-11 -11v-33h22v-21h-11l-11 11h-11l-12 -66l12 11h22v-11q-91 -227 -203 -227l-180 -33q-234 0 -552 228q-113 147 -113 249z" />
<glyph unicode="V" horiz-adv-x="688" d="M-69 825q16 39 31 39h21q107 0 142 -238q160 -517 245 -517h11q130 168 275 875v10l-10 69l31 30q102 -26 102 -99v-10l-215 -835q-53 -179 -143 -179q-175 0 -327 388q-132 424 -163 467z" />
<glyph unicode="W" horiz-adv-x="1114" d="M-19 1075l31 22h31q94 -22 94 -55q0 -341 63 -856q17 0 104 406q44 44 83 44h10q145 0 344 -384q87 -103 114 -110h42q31 0 42 154v11q-24 581 -84 581l-10 11h-10q7 154 62 154q109 0 125 -362q52 -251 52 -395v-66q0 -220 -146 -220q-216 0 -427 406l-72 88 q-39 0 -84 -362q-63 -215 -114 -263q-135 0 -135 131q-61 320 -104 1032z" />
<glyph unicode="X" horiz-adv-x="805" d="M-64 957l38 35h28q57 0 178 -197l216 -256h18q0 30 207 302q227 278 281 278q38 0 75 -69v-47l-131 -104q-340 -379 -347 -487q244 -227 244 -336v-35q0 -35 -85 -46q-33 144 -225 324h-9q-282 -379 -319 -591q0 -46 -19 -46h-75l-37 46v35q14 157 356 661 q-394 460 -394 533z" />
<glyph unicode="Y" horiz-adv-x="731" d="M-148 939v11l29 44h19q80 0 201 -222q147 -112 268 -112h86q61 446 115 446q64 -24 95 -78v-45q-38 -72 -38 -122l48 -100v-45q0 -49 -105 -156q-23 -178 -39 -178l10 -11l-38 -290l9 -11v-11q-19 -278 -76 -278q-96 14 -96 67l86 690h-19q-347 0 -555 401z" />
<glyph unicode="Z" horiz-adv-x="1325" d="M-90 932v46q0 43 534 115h42q233 0 278 -195v-23q-34 -139 -128 -276v-23q288 20 403 20h11q37 -17 37 -45q0 -20 -19 -45l-92 -33l-479 -35q-277 -267 -277 -288l10 -12h118l555 35l32 11l64 -11h96l160 11l64 -80q-20 -92 -96 -92q-62 30 -224 46l-64 -12h-64l-566 -46 q-299 35 -299 127q0 37 299 311v11q-203 32 -203 138v23l21 23h11q175 -57 288 -57h11q181 193 181 322v23q0 32 -106 46h-43q-229 0 -384 -104h-96q-75 48 -75 69z" />
<glyph unicode="[" horiz-adv-x="375" d="M90 1127q0 49 248 49h48q64 0 82 -49l28 -21l-7 -7l14 -14l-76 -21l-103 7q-74 0 -90 -21l14 -111h-7l7 -7v-7l-7 -28l7 -83v-153l7 -28q0 -21 -21 -21v-105h7v21h14v-21q0 -13 -21 -13v-56l7 -7l-7 -7v-63h14v-7h-14l-6 -21l6 -48v-105l7 -27l-7 -7l7 -35v-77 q21 0 21 -34v-35h-14v-14q14 0 14 -21q330 -27 330 -76l-7 -7l7 -7v-7q-41 -35 -89 -35q0 21 -117 28h-165l-28 -7q-62 30 -75 70l13 48l-13 278v98l-7 62l7 7l-7 28l7 84l-7 7l7 41q0 438 -28 585z" />
<glyph unicode="\" horiz-adv-x="569" d="M-141 1225q33 80 97 63l30 -19q21 -70 41 -87q406 -838 520 -1416q-9 -32 -79 -27l-25 7l-37 32l10 39l-41 216q-109 397 -333 862q-124 265 -183 330z" />
<glyph unicode="]" horiz-adv-x="417" d="M-186 -97q0 71 181 71q0 12 207 28v35q-55 743 -55 922v7q2 151 21 198l-7 22l-236 -78q-69 38 -69 78q0 37 83 42q155 68 243 71q34 0 76 -57l41 -7v-35q-25 0 -41 -248q0 -199 76 -971q14 0 14 -35v-14q-1 -16 -69 -43l-97 7q-115 0 -284 -57q-60 17 -84 57v7z" />
<glyph unicode="^" horiz-adv-x="520" />
<glyph unicode="_" horiz-adv-x="520" />
<glyph unicode="`" horiz-adv-x="682" />
<glyph unicode="a" horiz-adv-x="534" d="M-61 82q65 423 505 436l63 -24v-15q0 -84 -49 -216l-9 -69q2 -99 88 -173l5 -51q-36 -5 -59 -5q-61 0 -145 122l-16 73l-4 25l-8 -1q-193 -180 -291 -187q-58 7 -73 38zM70 130l47 35q227 177 257 258h-8q-259 -89 -296 -293z" />
<glyph unicode="b" horiz-adv-x="663" d="M3 326q0 284 168 622l27 20h53l53 -61v-10q-90 -75 -150 -296l-36 -234h9q168 143 266 143q164 0 248 -204v-61q-60 -120 -354 -235l-62 -10q-178 20 -178 143v30l27 41q-65 0 -71 112zM109 204q65 -92 98 -92q126 0 310 174v40q-35 72 -124 72q-92 -14 -284 -194z" />
<glyph unicode="c" horiz-adv-x="637" d="M0 254q0 103 340 193h28q74 0 95 -73q0 -49 -208 -84l-113 -61v-48q0 -51 189 -60l311 24q38 -18 38 -36q-123 -109 -387 -109q-293 0 -293 254z" />
<glyph unicode="d" horiz-adv-x="658" d="M3 175v22q0 171 229 285h46l46 -55v-44q-202 -84 -202 -208v-22l28 -33h36q150 0 340 329q36 122 36 241q0 279 -156 362l-9 44q12 66 28 66h18q143 0 220 -461q0 -511 -412 -691l-92 -10q-156 26 -156 175z" />
<glyph unicode="e" horiz-adv-x="534" d="M3 148v34q0 145 236 304l51 9h41q59 0 92 -61v-52q0 -46 -92 -182q0 -61 -31 -61h-31l-61 52v9q0 35 92 182v9q-174 -123 -174 -235v-8q0 -47 41 -61h41q67 0 400 87h20v-18q-149 -126 -379 -156h-72q-174 18 -174 148z" />
<glyph unicode="f" horiz-adv-x="374" d="M-133 374q88 81 275 131q111 592 351 592q74 0 95 -56q0 -31 -143 -75q-128 -140 -180 -404v-19h10q278 56 360 56h19v-9q0 -47 -85 -47v-9l9 -10v-9l-332 -85v-75l-9 -9l9 -10v-131q0 -151 29 -300h-10q19 -42 19 -122v-9q0 -34 -38 -76q-104 18 -104 66q28 0 28 38 l-47 581q-36 0 -199 -103q-47 0 -57 94z" />
<glyph unicode="g" horiz-adv-x="560" d="M0 -315q-9 27 -9 44q0 29 27 29q16 0 41 -10q54 -53 75 -53q15 0 15 24q0 57 -83 251l-18 166q0 367 286 367q187 -78 187 -233v-23q-137 -144 -277 -144l-80 11q0 -161 77 -284l38 -119v-5q0 -81 -29 -110q-27 -21 -52 -25l-39 4l-50 20q-48 10 -109 90zM191 247l35 -22 q95 0 179 89q-20 56 -89 56q-125 -22 -125 -123z" />
<glyph unicode="h" horiz-adv-x="714" d="M0 379q46 487 147 710h49q55 0 98 -96v-27q-157 -140 -167 -628v-95l20 -28q199 260 255 260q163 0 324 -465q61 -97 186 -136v-13l-69 -69h-39q-142 0 -333 491l-49 28q-35 0 -245 -287l-50 -14q-127 72 -127 369z" />
<glyph unicode="i" horiz-adv-x="189" d="M0 988q12 73 35 73h36q82 0 82 -85v-36q-12 -36 -71 -36q-38 0 -82 84zM4 242v97q0 157 30 157h51q24 -7 50 -85l-10 -169q0 -84 61 -182v-24l-30 -36h-31q-121 0 -121 242z" />
<glyph unicode="j" horiz-adv-x="275" d="M-155 -281l20 16l98 -64h20q81 0 97 487q0 132 88 385q108 -13 108 -56q-108 -336 -108 -776q-37 -90 -117 -129h-39q-167 23 -167 129v8zM168 791q19 36 39 40h59l39 -40v-24l10 -88l-29 -32q-85 0 -118 144z" />
<glyph unicode="k" horiz-adv-x="770" d="M3 249q0 210 140 690l10 12h10q59 0 101 -92q0 -116 -81 -253q-60 -277 -60 -368l10 -58h10q77 0 512 460l50 12l20 -35q0 -91 -171 -253l-110 -138q0 -126 80 -126h40q52 0 221 92l20 -35v-23q-46 -122 -190 -172l-51 -11q-166 0 -230 160h-20q-109 -92 -171 -92 q-140 0 -140 230z" />
<glyph unicode="l" horiz-adv-x="267" d="M3 562q40 539 82 539h71q35 0 59 -108q-71 -264 -71 -431q0 -221 106 -550l-12 -12h-35q-115 0 -153 215q-47 173 -47 347z" />
<glyph unicode="m" horiz-adv-x="710" d="M0 315v42q0 151 71 211q135 0 205 -285h18q50 211 142 211q92 -19 223 -306q32 -51 133 -137v-10q0 -56 -36 -73q-69 0 -213 209q-56 136 -98 169q-32 -28 -124 -295l-9 -10h-27q-54 18 -152 358l-8 10h-9l-18 -84v-42q0 -179 115 -420v-33h-17q-151 53 -196 485z" />
<glyph unicode="n" horiz-adv-x="555" d="M3 179v299l26 30h34q52 -43 52 -90l-9 -40l9 -179h9q101 239 181 239q63 0 120 -279q40 -90 95 -90l35 10l34 -30v-40q0 -34 -95 -49h-34q-62 32 -112 119q-30 57 -61 199q-13 0 -60 -109q-103 -169 -155 -169q-62 0 -69 179z" />
<glyph unicode="o" horiz-adv-x="546" d="M3 338q0 153 175 153q351 -84 351 -338q-149 -153 -258 -153q-146 0 -227 186q-28 0 -41 152zM124 273q61 -153 138 -182q150 60 150 116q-18 129 -210 170q-8 1 -14 1q-61 0 -61 -48l45 -137z" />
<glyph unicode="p" horiz-adv-x="559" d="M3 -126q0 621 331 621q195 -43 195 -190v-17q0 -142 -195 -268l-9 9l-8 -9h-26l-25 17v-8q34 -269 34 -397q0 -23 -59 -60q-148 0 -213 155q-25 81 -25 147zM71 3l8 -8v-9l-8 -8q35 -285 119 -294l8 9l-8 26q0 114 -60 525l26 18h8l9 -9l8 9h9q68 -25 68 -138 q0 -35 16 -35q145 125 145 190v60q-37 61 -111 61q-160 0 -229 -285h-8l8 -9v-60l-8 -9l8 -8v-17z" />
<glyph unicode="q" horiz-adv-x="473" d="M-33 259v6q0 183 247 242l87 -10q55 0 78 -171h9l10 10h19l39 -40q0 -85 -77 -141q-42 -256 -56 -409.5t-85 -164.5l-26 19l-19 -35h-27l-12 31v30q83 347 83 435v11q-236 28 -270 187zM83 292q67 -93 177 -116l12 45q0 133 -100 156q-89 -50 -89 -68v-17z" />
<glyph unicode="r" horiz-adv-x="460" d="M3 272v39q0 107 31 107h31q59 0 72 -224h11q106 322 196 322q103 -20 103 -98q-20 -44 -41 -48l-42 9l-165 -370l-72 -9h-21q-103 93 -103 272z" />
<glyph unicode="s" horiz-adv-x="440" d="M0 414q38 85 224 85h86q112 0 112 -113l-34 -10l-95 19l-9 -9h-8l-9 9h-9l-25 -9l-9 9v-9l-9 9h-8l-69 -37q4 -35 224 -217q51 -62 51 -104l-43 -37q-267 0 -267 122v10l43 56q-137 138 -146 226zM212 147l2 -9l11 -15l16 -8l25 -11z" />
<glyph unicode="t" horiz-adv-x="645" d="M-27 231q0 78 203 158v21q-60 228 -60 326v52l15 21h38q36 0 90 -357l15 -42l120 11q256 0 256 -63l-15 -21l-8 10l-37 -21l-8 11h-7l-30 -11v11l-8 -11h-22v11l-211 -21q68 -185 68 -253q-31 -53 -76 -63q-114 0 -278 147q-40 53 -45 84zM108 189q94 -63 136 -63h15 q-38 158 -60 158h-15l-46 -21q0 -32 -30 -63v-11z" />
<glyph unicode="u" horiz-adv-x="478" d="M0 204v20q0 157 92 264h37l37 -41v-20q-55 -195 -55 -254l27 -71h28q148 0 148 345l37 31h9q50 0 74 -61v-183l9 -173l-55 -50l-74 20q-57 -50 -120 -50q-194 0 -194 223z" />
<glyph unicode="v" horiz-adv-x="478" d="M3 408l24 8q60 0 86 -171q47 -102 70 -106q69 35 212 367l39 32h23q16 0 16 -24q-41 -238 -219 -481l-63 -33h-8q-180 186 -180 408z" />
<glyph unicode="w" horiz-adv-x="628" d="M0 162q2 76 101 255l9 8h19q45 -20 45 -63v-8l-18 -24v-8l9 -56q-64 -32 -64 -96v-40q19 -33 59 -33q8 0 17 1l43 8l147 52q16 7 29 7q25 0 44 -24l56 -37l13 -14l-41 154q-27 114 -27 229q23 40 73 40l28 -40l-10 -32l83 -383q-2 -52 -55 -87h-9l-65 45q-27 26 -27 34 h-10l-12 9l-13 10l-57 -19l-106 -23l88 31l-165 -48l-37 16l-28 -8q0 -16 28 -16v-15h-9q-120 55 -120 127q-18 0 -18 48z" />
<glyph unicode="x" horiz-adv-x="555" d="M0 81q0 102 149 252l-25 164l25 15h25q41 0 41 -82l25 -22q116 89 215 96h8q50 0 83 -44v-30l-41 -52h-9l-66 7q-109 -46 -140 -74h-9v8l91 74h-25q-41 -17 -91 -74q104 -216 191 -216l58 97l16 -30q0 -141 -74 -141l-17 -22q-97 39 -231 215q-17 0 -17 22 q-99 -74 -99 -185v-45l-17 -14h-25q-41 16 -41 81z" />
<glyph unicode="y" horiz-adv-x="568" d="M0 240q40 237 80 237q52 0 80 -56l-10 -34l20 -23l-40 -202l20 -57h30q229 88 229 248l50 68h40l40 -45v-57q0 -84 -80 -293l-20 -22l10 -33l-70 -192l10 -11v-11l-60 -147q-28 -47 -54 -47q-20 0 -40 30l-10 95l22 99l82 251h-10l-129 -23q0 -22 30 -22l10 -11v-11h-20 l-50 33h-60l-80 101z" />
<glyph unicode="z" horiz-adv-x="589" d="M-44 379v8q0 117 164 134h29q193 0 252 -224l5 -67h6q281 -28 281 -74v-30l-6 -7v-8l-6 8h-11v-15q-12 0 -12 22q-35 0 -35 -22h-6q-28 44 -82 44q0 17 -140 23v-8q0 -30 -41 -74v-15l6 7q198 -20 198 -44q0 -19 -128 -30l-6 7l-41 -7h-47q-28 -29 -47 -29v7l-5 -7h-12 l-6 7h-6l-12 -15h-17l12 22q-27 0 -246 149l-23 37v22q0 37 326 37h17l3 9q-3 67 -55 135l-6 13q-15 43 -91 55l-23 5h-26l-60 -18l-9 3l5 -8l-29 -59l6 -8v-7l-18 -23h-28v-14h-6q-15 0 -24 59zM67 146q122 -92 170 -92q76 67 76 113h-152q-94 0 -94 -21z" />
<glyph unicode="{" horiz-adv-x="684" />
<glyph unicode="|" horiz-adv-x="532" />
<glyph unicode="}" horiz-adv-x="684" />
<glyph unicode="~" horiz-adv-x="1196" />
<glyph unicode="&#xa1;" horiz-adv-x="682" />
<glyph unicode="&#xa2;" />
<glyph unicode="&#xa3;" />
<glyph unicode="&#xa4;" />
<glyph unicode="&#xa5;" />
<glyph unicode="&#xa6;" horiz-adv-x="532" />
<glyph unicode="&#xa7;" horiz-adv-x="764" d="M0 472q0 102 231 250q-48 79 -48 121v15q0 116 238 265q85 38 136 38h14q21 0 47 -91h-13q-131 0 -306 -197l-20 -45l13 -53l7 7h7q24 -30 47 -30l41 8q54 0 109 -99q82 -18 204 -181v-8h-7l-7 8h-7v-8l7 -38q0 -57 -163 -151h-7v-15q109 0 204 -121v-23l-102 -106 q-171 -134 -374 -242h-6q-48 21 -48 53q0 44 285 212l96 98v15q-417 86 -503 174q-75 82 -75 144zM102 442q0 -53 177 -114l6 8h7l34 -8q136 0 265 144v23q0 38 -244 136q-245 -96 -245 -189z" />
<glyph unicode="&#xa8;" horiz-adv-x="682" />
<glyph unicode="&#xa9;" horiz-adv-x="520" />
<glyph unicode="&#xaa;" horiz-adv-x="758" />
<glyph unicode="&#xab;" />
<glyph unicode="&#xac;" horiz-adv-x="1196" />
<glyph unicode="&#xad;" horiz-adv-x="598" d="M-57 466q0 59 384 102l30 -7h47q130 0 130 -54v-27q0 -28 -30 -55v-7q-71 41 -153 41q-186 0 -354 -95q-43 0 -54 102z" />
<glyph unicode="&#xae;" horiz-adv-x="520" />
<glyph unicode="&#xaf;" horiz-adv-x="1131" />
<glyph unicode="&#xb0;" horiz-adv-x="2847" />
<glyph unicode="&#xb1;" horiz-adv-x="1124" />
<glyph unicode="&#xb2;" horiz-adv-x="682" />
<glyph unicode="&#xb3;" horiz-adv-x="682" />
<glyph unicode="&#xb4;" horiz-adv-x="682" />
<glyph unicode="&#xb5;" horiz-adv-x="1180" />
<glyph unicode="&#xb6;" horiz-adv-x="520" />
<glyph unicode="&#xb7;" horiz-adv-x="569" />
<glyph unicode="&#x2219;" horiz-adv-x="569" />
<glyph unicode="&#xb8;" horiz-adv-x="682" />
<glyph unicode="&#xb9;" horiz-adv-x="682" />
<glyph unicode="&#xba;" horiz-adv-x="748" />
<glyph unicode="&#xbb;" />
<glyph unicode="&#xbc;" horiz-adv-x="1708" />
<glyph unicode="&#xbd;" horiz-adv-x="1708" />
<glyph unicode="&#xbe;" horiz-adv-x="1708" />
<glyph unicode="&#xbf;" horiz-adv-x="1251" />
<glyph unicode="&#xc0;" horiz-adv-x="1366" />
<glyph unicode="&#xc1;" horiz-adv-x="1366" />
<glyph unicode="&#xc2;" horiz-adv-x="1366" />
<glyph unicode="&#xc3;" horiz-adv-x="1366" />
<glyph unicode="&#xc4;" horiz-adv-x="1366" />
<glyph unicode="&#xc5;" horiz-adv-x="1366" />
<glyph unicode="&#xc6;" horiz-adv-x="2048" />
<glyph unicode="&#xc7;" horiz-adv-x="1479" />
<glyph unicode="&#xc8;" horiz-adv-x="1366" />
<glyph unicode="&#xc9;" horiz-adv-x="1366" />
<glyph unicode="&#xca;" horiz-adv-x="1366" />
<glyph unicode="&#xcb;" horiz-adv-x="1366" />
<glyph unicode="&#xcc;" horiz-adv-x="569" />
<glyph unicode="&#xcd;" horiz-adv-x="569" />
<glyph unicode="&#xce;" horiz-adv-x="569" />
<glyph unicode="&#xcf;" horiz-adv-x="569" />
<glyph unicode="&#xd0;" horiz-adv-x="1479" />
<glyph unicode="&#xd1;" horiz-adv-x="1479" />
<glyph unicode="&#xd2;" horiz-adv-x="1593" />
<glyph unicode="&#xd3;" horiz-adv-x="1593" />
<glyph unicode="&#xd4;" horiz-adv-x="1593" />
<glyph unicode="&#xd5;" horiz-adv-x="1593" />
<glyph unicode="&#xd6;" horiz-adv-x="1593" />
<glyph unicode="&#xd7;" horiz-adv-x="1196" />
<glyph unicode="&#xd8;" horiz-adv-x="1593" />
<glyph unicode="&#xd9;" horiz-adv-x="1479" />
<glyph unicode="&#xda;" horiz-adv-x="1479" />
<glyph unicode="&#xdb;" horiz-adv-x="1479" />
<glyph unicode="&#xdc;" horiz-adv-x="1479" />
<glyph unicode="&#xdd;" horiz-adv-x="1366" />
<glyph unicode="&#xde;" horiz-adv-x="1366" />
<glyph unicode="&#xdf;" horiz-adv-x="583" d="M-42 -100q21 51 95 480q112 667 189 667h20q103 0 129 -217l7 -109l-27 -194q67 0 120.5 -17.5t76 -82.5t-33.5 -189q-77 -144 -184 -238l-67 -23q-115 29 -115 108q0 81 54 124h13q61 -35 61 -93h14q117 91 162 256v16q0 31 -108 31l-81 -47h-7q-61 37 -61 86v7 q74 107 74 272v54l-6 93h-14q-74 -164 -176 -861q-19 -43 -20 -170q-13 -28 -41 -39q-74 19 -74 86z" />
<glyph unicode="&#xe0;" />
<glyph unicode="&#xe1;" />
<glyph unicode="&#xe2;" />
<glyph unicode="&#xe3;" />
<glyph unicode="&#xe4;" />
<glyph unicode="&#xe5;" />
<glyph unicode="&#xe6;" horiz-adv-x="1821" />
<glyph unicode="&#xe7;" horiz-adv-x="1024" />
<glyph unicode="&#xe8;" />
<glyph unicode="&#xe9;" />
<glyph unicode="&#xea;" />
<glyph unicode="&#xeb;" />
<glyph unicode="&#xec;" horiz-adv-x="569" />
<glyph unicode="&#xed;" horiz-adv-x="569" />
<glyph unicode="&#xee;" horiz-adv-x="569" />
<glyph unicode="&#xef;" horiz-adv-x="569" />
<glyph unicode="&#xf0;" />
<glyph unicode="&#xf1;" />
<glyph unicode="&#xf2;" />
<glyph unicode="&#xf3;" />
<glyph unicode="&#xf4;" />
<glyph unicode="&#xf5;" />
<glyph unicode="&#xf6;" />
<glyph unicode="&#xf7;" horiz-adv-x="1124" />
<glyph unicode="&#xf8;" horiz-adv-x="1251" />
<glyph unicode="&#xf9;" />
<glyph unicode="&#xfa;" />
<glyph unicode="&#xfb;" />
<glyph unicode="&#xfc;" />
<glyph unicode="&#xfd;" horiz-adv-x="1024" />
<glyph unicode="&#xfe;" />
<glyph unicode="&#xff;" horiz-adv-x="1024" />
<glyph unicode="&#x100;" horiz-adv-x="1366" />
<glyph unicode="&#x101;" />
<glyph unicode="&#x102;" horiz-adv-x="1366" />
<glyph unicode="&#x103;" />
<glyph unicode="&#x104;" horiz-adv-x="1366" />
<glyph unicode="&#x105;" />
<glyph unicode="&#x106;" horiz-adv-x="1479" />
<glyph unicode="&#x107;" horiz-adv-x="1024" />
<glyph unicode="&#x108;" horiz-adv-x="1479" />
<glyph unicode="&#x109;" horiz-adv-x="1024" />
<glyph unicode="&#x10a;" horiz-adv-x="1479" />
<glyph unicode="&#x10b;" horiz-adv-x="1024" />
<glyph unicode="&#x10c;" horiz-adv-x="1479" />
<glyph unicode="&#x10d;" horiz-adv-x="1024" />
<glyph unicode="&#x10e;" horiz-adv-x="1479" />
<glyph unicode="&#x10f;" horiz-adv-x="1259" />
<glyph unicode="&#x110;" horiz-adv-x="1479" />
<glyph unicode="&#x111;" />
<glyph unicode="&#x112;" horiz-adv-x="1366" />
<glyph unicode="&#x113;" />
<glyph unicode="&#x114;" horiz-adv-x="1366" />
<glyph unicode="&#x115;" />
<glyph unicode="&#x116;" horiz-adv-x="1366" />
<glyph unicode="&#x117;" />
<glyph unicode="&#x118;" horiz-adv-x="1366" />
<glyph unicode="&#x119;" />
<glyph unicode="&#x11a;" horiz-adv-x="1366" />
<glyph unicode="&#x11b;" />
<glyph unicode="&#x11c;" horiz-adv-x="1593" />
<glyph unicode="&#x11d;" />
<glyph unicode="&#x11e;" horiz-adv-x="1593" />
<glyph unicode="&#x11f;" />
<glyph unicode="&#x120;" horiz-adv-x="1593" />
<glyph unicode="&#x121;" />
<glyph unicode="&#x122;" horiz-adv-x="1593" />
<glyph unicode="&#x123;" />
<glyph unicode="&#x124;" horiz-adv-x="1479" />
<glyph unicode="&#x125;" />
<glyph unicode="&#x126;" horiz-adv-x="1479" />
<glyph unicode="&#x127;" />
<glyph unicode="&#x128;" horiz-adv-x="569" />
<glyph unicode="&#x129;" horiz-adv-x="569" />
<glyph unicode="&#x12a;" horiz-adv-x="569" />
<glyph unicode="&#x12b;" horiz-adv-x="569" />
<glyph unicode="&#x12c;" horiz-adv-x="569" />
<glyph unicode="&#x12d;" horiz-adv-x="569" />
<glyph unicode="&#x12e;" horiz-adv-x="569" />
<glyph unicode="&#x12f;" horiz-adv-x="455" />
<glyph unicode="&#x130;" horiz-adv-x="569" />
<glyph unicode="&#x131;" horiz-adv-x="569" />
<glyph unicode="&#x132;" horiz-adv-x="1505" />
<glyph unicode="&#x133;" horiz-adv-x="909" />
<glyph unicode="&#x134;" horiz-adv-x="1024" />
<glyph unicode="&#x135;" horiz-adv-x="455" />
<glyph unicode="&#x136;" horiz-adv-x="1366" />
<glyph unicode="&#x137;" horiz-adv-x="1024" />
<glyph unicode="&#x138;" horiz-adv-x="1024" />
<glyph unicode="&#x139;" />
<glyph unicode="&#x13a;" horiz-adv-x="455" />
<glyph unicode="&#x13b;" />
<glyph unicode="&#x13c;" horiz-adv-x="455" />
<glyph unicode="&#x13d;" />
<glyph unicode="&#x13e;" horiz-adv-x="597" />
<glyph unicode="&#x13f;" />
<glyph unicode="&#x140;" horiz-adv-x="684" />
<glyph unicode="&#x141;" />
<glyph unicode="&#x142;" horiz-adv-x="455" />
<glyph unicode="&#x143;" horiz-adv-x="1479" />
<glyph unicode="&#x144;" />
<glyph unicode="&#x145;" horiz-adv-x="1479" />
<glyph unicode="&#x146;" />
<glyph unicode="&#x147;" horiz-adv-x="1479" />
<glyph unicode="&#x148;" />
<glyph unicode="&#x149;" horiz-adv-x="1237" />
<glyph unicode="&#x14a;" horiz-adv-x="1481" />
<glyph unicode="&#x14b;" />
<glyph unicode="&#x14c;" horiz-adv-x="1593" />
<glyph unicode="&#x14d;" />
<glyph unicode="&#x14e;" horiz-adv-x="1593" />
<glyph unicode="&#x14f;" />
<glyph unicode="&#x150;" horiz-adv-x="1593" />
<glyph unicode="&#x151;" />
<glyph unicode="&#x152;" horiz-adv-x="2048" />
<glyph unicode="&#x153;" horiz-adv-x="1933" />
<glyph unicode="&#x154;" horiz-adv-x="1479" />
<glyph unicode="&#x155;" horiz-adv-x="682" />
<glyph unicode="&#x156;" horiz-adv-x="1479" />
<glyph unicode="&#x157;" horiz-adv-x="682" />
<glyph unicode="&#x158;" horiz-adv-x="1479" />
<glyph unicode="&#x159;" horiz-adv-x="682" />
<glyph unicode="&#x15a;" horiz-adv-x="1366" />
<glyph unicode="&#x15b;" horiz-adv-x="1024" />
<glyph unicode="&#x15c;" horiz-adv-x="1366" />
<glyph unicode="&#x15d;" horiz-adv-x="1024" />
<glyph unicode="&#x15e;" horiz-adv-x="1366" />
<glyph unicode="&#x15f;" horiz-adv-x="1024" />
<glyph unicode="&#x160;" horiz-adv-x="1366" />
<glyph unicode="&#x161;" horiz-adv-x="1024" />
<glyph unicode="&#x162;" horiz-adv-x="1251" />
<glyph unicode="&#x163;" horiz-adv-x="569" />
<glyph unicode="&#x164;" horiz-adv-x="1251" />
<glyph unicode="&#x165;" horiz-adv-x="768" />
<glyph unicode="&#x166;" horiz-adv-x="1251" />
<glyph unicode="&#x167;" horiz-adv-x="569" />
<glyph unicode="&#x168;" horiz-adv-x="1479" />
<glyph unicode="&#x169;" />
<glyph unicode="&#x16a;" horiz-adv-x="1479" />
<glyph unicode="&#x16b;" />
<glyph unicode="&#x16c;" horiz-adv-x="1479" />
<glyph unicode="&#x16d;" />
<glyph unicode="&#x16e;" horiz-adv-x="1479" />
<glyph unicode="&#x16f;" />
<glyph unicode="&#x170;" horiz-adv-x="1479" />
<glyph unicode="&#x171;" />
<glyph unicode="&#x172;" horiz-adv-x="1479" />
<glyph unicode="&#x173;" />
<glyph unicode="&#x174;" horiz-adv-x="1933" />
<glyph unicode="&#x175;" horiz-adv-x="1479" />
<glyph unicode="&#x176;" horiz-adv-x="1366" />
<glyph unicode="&#x177;" horiz-adv-x="1024" />
<glyph unicode="&#x178;" horiz-adv-x="1366" />
<glyph unicode="&#x179;" horiz-adv-x="1251" />
<glyph unicode="&#x17a;" horiz-adv-x="1024" />
<glyph unicode="&#x17b;" horiz-adv-x="1251" />
<glyph unicode="&#x17c;" horiz-adv-x="1024" />
<glyph unicode="&#x17d;" horiz-adv-x="1251" />
<glyph unicode="&#x17e;" horiz-adv-x="1024" />
<glyph unicode="&#x17f;" horiz-adv-x="455" />
<glyph unicode="&#x192;" />
<glyph unicode="&#x1fa;" horiz-adv-x="1366" />
<glyph unicode="&#x1fb;" />
<glyph unicode="&#x1fc;" horiz-adv-x="2048" />
<glyph unicode="&#x1fd;" horiz-adv-x="1821" />
<glyph unicode="&#x1fe;" horiz-adv-x="1593" />
<glyph unicode="&#x1ff;" horiz-adv-x="1251" />
<glyph unicode="&#x2c6;" horiz-adv-x="682" />
<glyph unicode="&#x2c7;" horiz-adv-x="682" />
<glyph unicode="&#x2c9;" horiz-adv-x="682" />
<glyph unicode="&#x2d8;" horiz-adv-x="682" />
<glyph unicode="&#x2d9;" horiz-adv-x="682" />
<glyph unicode="&#x2da;" horiz-adv-x="682" />
<glyph unicode="&#x2db;" horiz-adv-x="682" />
<glyph unicode="&#x2dc;" horiz-adv-x="682" />
<glyph unicode="&#x2dd;" horiz-adv-x="682" />
<glyph unicode="&#x384;" horiz-adv-x="682" />
<glyph unicode="&#x385;" horiz-adv-x="682" />
<glyph unicode="&#x386;" horiz-adv-x="1367" />
<glyph unicode="&#x387;" horiz-adv-x="569" />
<glyph unicode="&#x388;" horiz-adv-x="1606" />
<glyph unicode="&#x389;" horiz-adv-x="1716" />
<glyph unicode="&#x38a;" horiz-adv-x="786" />
<glyph unicode="&#x38c;" horiz-adv-x="1586" />
<glyph unicode="&#x38e;" horiz-adv-x="1752" />
<glyph unicode="&#x38f;" horiz-adv-x="1541" />
<glyph unicode="&#x390;" horiz-adv-x="455" />
<glyph unicode="&#x391;" horiz-adv-x="1366" />
<glyph unicode="&#x392;" horiz-adv-x="1366" />
<glyph unicode="&#x393;" horiz-adv-x="1128" />
<glyph unicode="&#x394;" horiz-adv-x="1368" />
<glyph unicode="&#x395;" horiz-adv-x="1366" />
<glyph unicode="&#x396;" horiz-adv-x="1251" />
<glyph unicode="&#x397;" horiz-adv-x="1479" />
<glyph unicode="&#x398;" horiz-adv-x="1593" />
<glyph unicode="&#x399;" horiz-adv-x="569" />
<glyph unicode="&#x39a;" horiz-adv-x="1366" />
<glyph unicode="&#x39b;" horiz-adv-x="1368" />
<glyph unicode="&#x39c;" horiz-adv-x="1706" />
<glyph unicode="&#x39d;" horiz-adv-x="1479" />
<glyph unicode="&#x39e;" horiz-adv-x="1331" />
<glyph unicode="&#x39f;" horiz-adv-x="1593" />
<glyph unicode="&#x3a0;" horiz-adv-x="1479" />
<glyph unicode="&#x3a1;" horiz-adv-x="1366" />
<glyph unicode="&#x3a3;" horiz-adv-x="1266" />
<glyph unicode="&#x3a4;" horiz-adv-x="1251" />
<glyph unicode="&#x3a5;" horiz-adv-x="1366" />
<glyph unicode="&#x3a6;" horiz-adv-x="1634" />
<glyph unicode="&#x3a7;" horiz-adv-x="1366" />
<glyph unicode="&#x3a8;" horiz-adv-x="1711" />
<glyph unicode="&#x3a9;" horiz-adv-x="1531" />
<glyph unicode="&#x3aa;" horiz-adv-x="569" />
<glyph unicode="&#x3ab;" horiz-adv-x="1366" />
<glyph unicode="&#x3ac;" horiz-adv-x="1184" />
<glyph unicode="&#x3ad;" horiz-adv-x="913" />
<glyph unicode="&#x3ae;" />
<glyph unicode="&#x3af;" horiz-adv-x="455" />
<glyph unicode="&#x3b0;" horiz-adv-x="1120" />
<glyph unicode="&#x3b1;" horiz-adv-x="1184" />
<glyph unicode="&#x3b2;" horiz-adv-x="1178" />
<glyph unicode="&#x3b3;" horiz-adv-x="1024" />
<glyph unicode="&#x3b4;" horiz-adv-x="1140" />
<glyph unicode="&#x3b5;" horiz-adv-x="913" />
<glyph unicode="&#x3b6;" horiz-adv-x="903" />
<glyph unicode="&#x3b7;" />
<glyph unicode="&#x3b8;" />
<glyph unicode="&#x3b9;" horiz-adv-x="455" />
<glyph unicode="&#x3ba;" horiz-adv-x="1024" />
<glyph unicode="&#x3bb;" horiz-adv-x="1024" />
<glyph unicode="&#x3bc;" horiz-adv-x="1180" />
<glyph unicode="&#x3bd;" horiz-adv-x="1024" />
<glyph unicode="&#x3be;" horiz-adv-x="917" />
<glyph unicode="&#x3bf;" />
<glyph unicode="&#x3c0;" horiz-adv-x="1413" />
<glyph unicode="&#x3c1;" horiz-adv-x="1165" />
<glyph unicode="&#x3c2;" horiz-adv-x="987" />
<glyph unicode="&#x3c3;" horiz-adv-x="1264" />
<glyph unicode="&#x3c4;" horiz-adv-x="809" />
<glyph unicode="&#x3c5;" horiz-adv-x="1120" />
<glyph unicode="&#x3c6;" horiz-adv-x="1328" />
<glyph unicode="&#x3c7;" horiz-adv-x="1075" />
<glyph unicode="&#x3c8;" horiz-adv-x="1460" />
<glyph unicode="&#x3c9;" horiz-adv-x="1599" />
<glyph unicode="&#x3ca;" horiz-adv-x="455" />
<glyph unicode="&#x3cb;" horiz-adv-x="1120" />
<glyph unicode="&#x3cc;" />
<glyph unicode="&#x3cd;" horiz-adv-x="1120" />
<glyph unicode="&#x3ce;" horiz-adv-x="1599" />
<glyph unicode="&#x401;" horiz-adv-x="1367" />
<glyph unicode="&#x402;" horiz-adv-x="1771" />
<glyph unicode="&#x403;" horiz-adv-x="1109" />
<glyph unicode="&#x404;" horiz-adv-x="1472" />
<glyph unicode="&#x405;" horiz-adv-x="1366" />
<glyph unicode="&#x406;" horiz-adv-x="569" />
<glyph unicode="&#x407;" horiz-adv-x="569" />
<glyph unicode="&#x408;" horiz-adv-x="1024" />
<glyph unicode="&#x409;" horiz-adv-x="2165" />
<glyph unicode="&#x40a;" horiz-adv-x="2069" />
<glyph unicode="&#x40b;" horiz-adv-x="1749" />
<glyph unicode="&#x40c;" horiz-adv-x="1193" />
<glyph unicode="&#x40e;" horiz-adv-x="1301" />
<glyph unicode="&#x40f;" horiz-adv-x="1472" />
<glyph unicode="&#x410;" horiz-adv-x="1366" />
<glyph unicode="&#x411;" horiz-adv-x="1344" />
<glyph unicode="&#x412;" horiz-adv-x="1366" />
<glyph unicode="&#x413;" horiz-adv-x="1109" />
<glyph unicode="&#x414;" horiz-adv-x="1387" />
<glyph unicode="&#x415;" horiz-adv-x="1366" />
<glyph unicode="&#x416;" horiz-adv-x="1891" />
<glyph unicode="&#x417;" horiz-adv-x="1237" />
<glyph unicode="&#x418;" horiz-adv-x="1472" />
<glyph unicode="&#x419;" horiz-adv-x="1472" />
<glyph unicode="&#x41a;" horiz-adv-x="1193" />
<glyph unicode="&#x41b;" horiz-adv-x="1344" />
<glyph unicode="&#x41c;" horiz-adv-x="1706" />
<glyph unicode="&#x41d;" horiz-adv-x="1479" />
<glyph unicode="&#x41e;" horiz-adv-x="1593" />
<glyph unicode="&#x41f;" horiz-adv-x="1472" />
<glyph unicode="&#x420;" horiz-adv-x="1366" />
<glyph unicode="&#x421;" horiz-adv-x="1479" />
<glyph unicode="&#x422;" horiz-adv-x="1251" />
<glyph unicode="&#x423;" horiz-adv-x="1301" />
<glyph unicode="&#x424;" horiz-adv-x="1557" />
<glyph unicode="&#x425;" horiz-adv-x="1366" />
<glyph unicode="&#x426;" horiz-adv-x="1515" />
<glyph unicode="&#x427;" horiz-adv-x="1365" />
<glyph unicode="&#x428;" horiz-adv-x="1877" />
<glyph unicode="&#x429;" horiz-adv-x="1920" />
<glyph unicode="&#x42a;" horiz-adv-x="1621" />
<glyph unicode="&#x42b;" horiz-adv-x="1813" />
<glyph unicode="&#x42c;" horiz-adv-x="1344" />
<glyph unicode="&#x42d;" horiz-adv-x="1472" />
<glyph unicode="&#x42e;" horiz-adv-x="2069" />
<glyph unicode="&#x42f;" horiz-adv-x="1479" />
<glyph unicode="&#x430;" />
<glyph unicode="&#x431;" horiz-adv-x="1173" />
<glyph unicode="&#x432;" horiz-adv-x="1088" />
<glyph unicode="&#x433;" horiz-adv-x="747" />
<glyph unicode="&#x434;" horiz-adv-x="1195" />
<glyph unicode="&#x435;" />
<glyph unicode="&#x436;" horiz-adv-x="1370" />
<glyph unicode="&#x437;" horiz-adv-x="939" />
<glyph unicode="&#x438;" horiz-adv-x="1144" />
<glyph unicode="&#x439;" horiz-adv-x="1144" />
<glyph unicode="&#x43a;" horiz-adv-x="896" />
<glyph unicode="&#x43b;" horiz-adv-x="1195" />
<glyph unicode="&#x43c;" horiz-adv-x="1408" />
<glyph unicode="&#x43d;" horiz-adv-x="1131" />
<glyph unicode="&#x43e;" />
<glyph unicode="&#x43f;" horiz-adv-x="1109" />
<glyph unicode="&#x440;" />
<glyph unicode="&#x441;" horiz-adv-x="1024" />
<glyph unicode="&#x442;" horiz-adv-x="938" />
<glyph unicode="&#x443;" horiz-adv-x="1024" />
<glyph unicode="&#x444;" horiz-adv-x="1685" />
<glyph unicode="&#x445;" horiz-adv-x="1024" />
<glyph unicode="&#x446;" horiz-adv-x="1173" />
<glyph unicode="&#x447;" horiz-adv-x="1067" />
<glyph unicode="&#x448;" horiz-adv-x="1643" />
<glyph unicode="&#x449;" horiz-adv-x="1685" />
<glyph unicode="&#x44a;" horiz-adv-x="1280" />
<glyph unicode="&#x44b;" horiz-adv-x="1472" />
<glyph unicode="&#x44c;" horiz-adv-x="1067" />
<glyph unicode="&#x44d;" horiz-adv-x="1045" />
<glyph unicode="&#x44e;" horiz-adv-x="1536" />
<glyph unicode="&#x44f;" horiz-adv-x="1109" />
<glyph unicode="&#x451;" />
<glyph unicode="&#x452;" />
<glyph unicode="&#x453;" horiz-adv-x="747" />
<glyph unicode="&#x454;" horiz-adv-x="1045" />
<glyph unicode="&#x455;" horiz-adv-x="1024" />
<glyph unicode="&#x456;" horiz-adv-x="455" />
<glyph unicode="&#x457;" horiz-adv-x="569" />
<glyph unicode="&#x458;" horiz-adv-x="455" />
<glyph unicode="&#x459;" horiz-adv-x="1856" />
<glyph unicode="&#x45a;" horiz-adv-x="1664" />
<glyph unicode="&#x45b;" />
<glyph unicode="&#x45c;" horiz-adv-x="896" />
<glyph unicode="&#x45e;" horiz-adv-x="1024" />
<glyph unicode="&#x45f;" horiz-adv-x="1131" />
<glyph unicode="&#x490;" horiz-adv-x="1001" />
<glyph unicode="&#x491;" horiz-adv-x="842" />
<glyph unicode="&#x1e80;" horiz-adv-x="1933" />
<glyph unicode="&#x1e81;" horiz-adv-x="1479" />
<glyph unicode="&#x1e82;" horiz-adv-x="1933" />
<glyph unicode="&#x1e83;" horiz-adv-x="1479" />
<glyph unicode="&#x1e84;" horiz-adv-x="1933" />
<glyph unicode="&#x1e85;" horiz-adv-x="1479" />
<glyph unicode="&#x1ef2;" horiz-adv-x="1366" />
<glyph unicode="&#x1ef3;" horiz-adv-x="1024" />
<glyph unicode="&#x2013;" />
<glyph unicode="&#x2014;" horiz-adv-x="2048" />
<glyph unicode="&#x2015;" horiz-adv-x="2048" />
<glyph unicode="&#x2017;" horiz-adv-x="1131" />
<glyph unicode="&#x2018;" horiz-adv-x="455" />
<glyph unicode="&#x2019;" horiz-adv-x="455" />
<glyph unicode="&#x201a;" horiz-adv-x="455" />
<glyph unicode="&#x201b;" horiz-adv-x="455" />
<glyph unicode="&#x201c;" horiz-adv-x="682" />
<glyph unicode="&#x201d;" horiz-adv-x="682" />
<glyph unicode="&#x201e;" horiz-adv-x="682" />
<glyph unicode="&#x2020;" />
<glyph unicode="&#x2021;" />
<glyph unicode="&#x2022;" horiz-adv-x="717" />
<glyph unicode="&#x2026;" horiz-adv-x="2048" />
<glyph unicode="&#x2030;" horiz-adv-x="2048" />
<glyph unicode="&#x2032;" horiz-adv-x="384" />
<glyph unicode="&#x2033;" horiz-adv-x="725" />
<glyph unicode="&#x2039;" horiz-adv-x="682" />
<glyph unicode="&#x203a;" horiz-adv-x="682" />
<glyph unicode="&#x203c;" horiz-adv-x="1024" />
<glyph unicode="&#x203e;" horiz-adv-x="682" />
<glyph unicode="&#x2044;" horiz-adv-x="342" />
<glyph unicode="&#x2215;" horiz-adv-x="342" />
<glyph unicode="&#x207f;" horiz-adv-x="747" />
<glyph unicode="&#x20a3;" />
<glyph unicode="&#x20a4;" />
<glyph unicode="&#x20a7;" horiz-adv-x="2240" />
<glyph unicode="&#x20ac;" />
<glyph unicode="&#x2105;" horiz-adv-x="1813" />
<glyph unicode="&#x2113;" horiz-adv-x="662" />
<glyph unicode="&#x2116;" horiz-adv-x="2197" />
<glyph unicode="&#x2122;" horiz-adv-x="520" />
<glyph unicode="&#x2126;" horiz-adv-x="1573" />
<glyph unicode="&#x212e;" horiz-adv-x="1229" />
<glyph unicode="&#x215b;" horiz-adv-x="1708" />
<glyph unicode="&#x215c;" horiz-adv-x="1708" />
<glyph unicode="&#x215d;" horiz-adv-x="1708" />
<glyph unicode="&#x215e;" horiz-adv-x="1708" />
<glyph unicode="&#x2190;" horiz-adv-x="2048" />
<glyph unicode="&#x2191;" horiz-adv-x="1024" />
<glyph unicode="&#x2192;" horiz-adv-x="2048" />
<glyph unicode="&#x2193;" horiz-adv-x="1024" />
<glyph unicode="&#x2194;" horiz-adv-x="2048" />
<glyph unicode="&#x2195;" horiz-adv-x="1024" />
<glyph unicode="&#x21a8;" horiz-adv-x="1024" />
<glyph unicode="&#x2202;" horiz-adv-x="1012" />
<glyph unicode="&#x2206;" horiz-adv-x="1253" />
<glyph unicode="&#x220f;" horiz-adv-x="1686" />
<glyph unicode="&#x2211;" horiz-adv-x="1460" />
<glyph unicode="&#x2212;" horiz-adv-x="1196" />
<glyph unicode="&#x221a;" horiz-adv-x="1124" />
<glyph unicode="&#x221e;" horiz-adv-x="1460" />
<glyph unicode="&#x221f;" horiz-adv-x="2005" />
<glyph unicode="&#x2229;" horiz-adv-x="1472" />
<glyph unicode="&#x222b;" horiz-adv-x="561" />
<glyph unicode="&#x2248;" horiz-adv-x="1124" />
<glyph unicode="&#x2260;" horiz-adv-x="1124" />
<glyph unicode="&#x2261;" horiz-adv-x="1195" />
<glyph unicode="&#x2264;" horiz-adv-x="1124" />
<glyph unicode="&#x2265;" horiz-adv-x="1124" />
<glyph unicode="&#x2302;" horiz-adv-x="1237" />
<glyph unicode="&#x2310;" horiz-adv-x="1196" />
<glyph unicode="&#x2320;" horiz-adv-x="1237" />
<glyph unicode="&#x2321;" horiz-adv-x="1237" />
<glyph unicode="&#x2500;" horiz-adv-x="1451" />
<glyph unicode="&#x2502;" horiz-adv-x="1280" />
<glyph unicode="&#x250c;" horiz-adv-x="1451" />
<glyph unicode="&#x2510;" horiz-adv-x="1451" />
<glyph unicode="&#x2514;" horiz-adv-x="1451" />
<glyph unicode="&#x2518;" horiz-adv-x="1451" />
<glyph unicode="&#x251c;" horiz-adv-x="1451" />
<glyph unicode="&#x2524;" horiz-adv-x="1451" />
<glyph unicode="&#x252c;" horiz-adv-x="1451" />
<glyph unicode="&#x2534;" horiz-adv-x="1451" />
<glyph unicode="&#x253c;" horiz-adv-x="1451" />
<glyph unicode="&#x2550;" horiz-adv-x="1451" />
<glyph unicode="&#x2551;" horiz-adv-x="1451" />
<glyph unicode="&#x2552;" horiz-adv-x="1451" />
<glyph unicode="&#x2553;" horiz-adv-x="1451" />
<glyph unicode="&#x2554;" horiz-adv-x="1451" />
<glyph unicode="&#x2555;" horiz-adv-x="1451" />
<glyph unicode="&#x2556;" horiz-adv-x="1451" />
<glyph unicode="&#x2557;" horiz-adv-x="1451" />
<glyph unicode="&#x2558;" horiz-adv-x="1451" />
<glyph unicode="&#x2559;" horiz-adv-x="1451" />
<glyph unicode="&#x255a;" horiz-adv-x="1451" />
<glyph unicode="&#x255b;" horiz-adv-x="1451" />
<glyph unicode="&#x255c;" horiz-adv-x="1451" />
<glyph unicode="&#x255d;" horiz-adv-x="1451" />
<glyph unicode="&#x255e;" horiz-adv-x="1451" />
<glyph unicode="&#x255f;" horiz-adv-x="1451" />
<glyph unicode="&#x2560;" horiz-adv-x="1451" />
<glyph unicode="&#x2561;" horiz-adv-x="1451" />
<glyph unicode="&#x2562;" horiz-adv-x="1451" />
<glyph unicode="&#x2563;" horiz-adv-x="1451" />
<glyph unicode="&#x2564;" horiz-adv-x="1451" />
<glyph unicode="&#x2565;" horiz-adv-x="1451" />
<glyph unicode="&#x2566;" horiz-adv-x="1451" />
<glyph unicode="&#x2567;" horiz-adv-x="1451" />
<glyph unicode="&#x2568;" horiz-adv-x="1451" />
<glyph unicode="&#x2569;" horiz-adv-x="1451" />
<glyph unicode="&#x256a;" horiz-adv-x="1451" />
<glyph unicode="&#x256b;" horiz-adv-x="1451" />
<glyph unicode="&#x256c;" horiz-adv-x="1451" />
<glyph unicode="&#x2580;" horiz-adv-x="1451" />
<glyph unicode="&#x2584;" horiz-adv-x="1451" />
<glyph unicode="&#x2588;" horiz-adv-x="1451" />
<glyph unicode="&#x258c;" horiz-adv-x="1451" />
<glyph unicode="&#x2590;" horiz-adv-x="1451" />
<glyph unicode="&#x2591;" horiz-adv-x="1451" />
<glyph unicode="&#x2592;" horiz-adv-x="1451" />
<glyph unicode="&#x2593;" horiz-adv-x="1493" />
<glyph unicode="&#x25a0;" horiz-adv-x="1237" />
<glyph unicode="&#x25a1;" horiz-adv-x="1237" />
<glyph unicode="&#x25aa;" horiz-adv-x="726" />
<glyph unicode="&#x25ab;" horiz-adv-x="726" />
<glyph unicode="&#x25ac;" horiz-adv-x="2048" />
<glyph unicode="&#x25b2;" horiz-adv-x="2027" />
<glyph unicode="&#x25ba;" horiz-adv-x="2027" />
<glyph unicode="&#x25bc;" horiz-adv-x="2027" />
<glyph unicode="&#x25c4;" horiz-adv-x="2027" />
<glyph unicode="&#x25ca;" horiz-adv-x="1012" />
<glyph unicode="&#x25cb;" horiz-adv-x="1237" />
<glyph unicode="&#x25cf;" horiz-adv-x="1237" />
<glyph unicode="&#x25d8;" horiz-adv-x="1237" />
<glyph unicode="&#x25d9;" horiz-adv-x="1237" />
<glyph unicode="&#x25e6;" horiz-adv-x="726" />
<glyph unicode="&#x263a;" horiz-adv-x="2091" />
<glyph unicode="&#x263b;" horiz-adv-x="2155" />
<glyph unicode="&#x263c;" horiz-adv-x="1877" />
<glyph unicode="&#x2640;" horiz-adv-x="1536" />
<glyph unicode="&#x2642;" horiz-adv-x="1536" />
<glyph unicode="&#x2660;" horiz-adv-x="1088" />
<glyph unicode="&#x2663;" horiz-adv-x="1344" />
<glyph unicode="&#x2665;" horiz-adv-x="1216" />
<glyph unicode="&#x2666;" horiz-adv-x="1045" />
<glyph unicode="&#x266a;" horiz-adv-x="1024" />
<glyph unicode="&#x266b;" horiz-adv-x="1536" />
<glyph unicode="&#xe000;" horiz-adv-x="510" d="M0 510h510v-510h-510v510z" />
<glyph unicode="&#xf001;" horiz-adv-x="1024" />
<glyph unicode="&#xfb01;" horiz-adv-x="1024" />
<glyph unicode="&#xf002;" horiz-adv-x="1024" />
<glyph unicode="&#xfb02;" horiz-adv-x="1024" />
<glyph unicode="&#xf004;" horiz-adv-x="682" />
<glyph unicode="&#xf005;" horiz-adv-x="682" />
<glyph horiz-adv-x="1124" />
</font>
</defs>
</svg>
